# Blender 4.2.1 LTS
# www.blender.org
mtllib Fish.mtl
o Cylinder
o Circle
v 1.584835 0.722895 -0.015953
v 1.584835 -0.622808 -0.015953
v 1.584835 -0.399769 0.230630
v 1.584835 0.060223 0.316774
v 1.584835 0.545877 0.230630
v 0.189340 1.060223 -0.015953
v 0.189340 -0.939777 -0.015953
v 0.189340 -0.646884 0.691154
v 0.189340 0.060222 0.984047
v 0.189340 0.767329 0.691154
v -1.220380 1.319720 -0.015953
v -1.220380 -1.053387 -0.015953
v -1.220380 -0.830376 0.691154
v -1.191575 0.035935 1.031543
v -1.220380 0.950821 0.691154
v -2.326929 1.060223 -0.015953
v -2.326929 -0.939777 -0.015953
v -2.326929 -0.646884 0.691154
v -2.326929 0.767329 0.691154
v 2.147839 0.579653 -0.015953
v 2.147839 -0.459571 -0.015953
v 2.147839 -0.349544 0.020338
v 2.147839 0.060223 0.043749
v 2.147839 0.417853 0.020338
v 2.695043 1.570523 -0.015952
v 2.655058 -1.181092 -0.015953
v 2.828757 -1.071064 0.020338
v 2.641781 0.060223 0.043749
v 2.641781 1.417853 0.020338
v 3.790909 2.421452 -0.015952
v 3.485683 -1.459571 -0.015953
v 3.485683 -1.349543 0.020338
v 2.882101 0.060223 0.043749
v 3.485683 1.417853 0.020338
v 2.882101 0.060223 -0.015953
v -3.228899 0.505487 -0.015953
v -3.228899 -0.385042 -0.015953
v -3.228899 -0.254627 0.298897
v -3.228899 0.060222 0.429312
v -3.228899 0.375072 0.298897
v -2.326929 0.060222 0.984047
v -3.228899 0.060222 -0.015953
v -3.574753 0.176811 -0.015953
v -3.574753 -0.056367 -0.015953
v -3.574753 -0.022219 0.066488
v -3.574753 0.060222 0.100636
v -3.574753 0.142663 0.066488
v -3.574753 0.060222 -0.015953
v 0.302152 1.765846 -0.015953
v -0.551055 1.683522 -0.015953
v -1.220380 -0.830376 0.691154
v -2.326929 -0.646884 0.691154
v 0.101991 1.408889 -0.015953
v -1.355759 -0.831347 0.616897
v -1.177692 -1.225002 0.685742
v -1.359511 -0.853973 0.543185
v -1.181444 -1.247628 0.667338
v -2.044111 -0.717202 0.616897
v -1.838316 -1.123391 0.665482
v -2.047863 -0.739827 0.543185
v -1.842068 -1.146016 0.647078
v -2.882038 0.387352 0.487172
v -2.853386 0.363958 0.458520
v -2.832120 0.328116 0.437254
v -2.820805 0.284150 0.425939
v -2.820805 0.237362 0.425939
v -2.832120 0.193395 0.437254
v -2.853386 0.157554 0.458520
v -2.882038 0.134160 0.487172
v -2.868542 0.387352 0.519754
v -2.828022 0.363958 0.519754
v -2.797947 0.328116 0.519754
v -2.781945 0.284150 0.519754
v -2.781945 0.237362 0.519754
v -2.797947 0.193395 0.519754
v -2.828022 0.157554 0.519754
v -2.868542 0.134160 0.519754
v -2.882038 0.387352 0.552335
v -2.853386 0.363958 0.580987
v -2.832120 0.328116 0.602253
v -2.820805 0.284150 0.613569
v -2.820805 0.237362 0.613569
v -2.832120 0.193395 0.602253
v -2.853386 0.157554 0.580987
v -2.882038 0.134160 0.552335
v -2.914619 0.387352 0.565831
v -2.914619 0.363958 0.606351
v -2.914619 0.328116 0.636426
v -2.914619 0.284150 0.652428
v -2.914619 0.237362 0.652428
v -2.914619 0.193395 0.636426
v -2.914619 0.157554 0.606351
v -2.914619 0.134160 0.565831
v -2.947201 0.387352 0.552335
v -2.975852 0.363958 0.580987
v -2.997119 0.328116 0.602253
v -3.008434 0.284150 0.613569
v -3.008434 0.237362 0.613569
v -2.997119 0.193395 0.602253
v -2.975853 0.157554 0.580987
v -2.947201 0.134160 0.552335
v -2.914619 0.126035 0.519754
v -2.914619 0.395477 0.519754
v -2.960697 0.387352 0.519754
v -3.001216 0.363958 0.519754
v -3.031291 0.328116 0.519754
v -3.047294 0.284150 0.519754
v -3.047294 0.237362 0.519754
v -3.031291 0.193395 0.519754
v -3.001216 0.157554 0.519754
v -2.960697 0.134160 0.519754
v -2.947201 0.387352 0.487172
v -2.975852 0.363958 0.458521
v -2.997119 0.328116 0.437254
v -3.008434 0.284150 0.425939
v -3.008434 0.237362 0.425939
v -2.997119 0.193395 0.437254
v -2.975853 0.157554 0.458521
v -2.947201 0.134160 0.487172
v -2.914619 0.387352 0.473676
v -2.914619 0.363958 0.433157
v -2.914619 0.328116 0.403082
v -2.914619 0.284150 0.387080
v -2.914619 0.237362 0.387080
v -2.914619 0.193395 0.403082
v -2.914619 0.157554 0.433157
v -2.914619 0.134160 0.473676
v 1.584835 -0.399769 -0.262536
v 1.584835 0.060223 -0.348679
v 1.584835 0.545877 -0.262536
v 0.189340 -0.646884 -0.723060
v 0.189340 0.060223 -1.015953
v 0.189340 0.767330 -0.723059
v -1.220380 -0.830376 -0.723060
v -1.191575 0.035936 -1.063449
v -1.220380 0.950822 -0.723060
v -2.326929 -0.646884 -0.723060
v -2.326929 0.767329 -0.723060
v 2.147839 -0.349544 -0.052243
v 2.147839 0.060223 -0.075655
v 2.147839 0.417853 -0.052243
v 2.828757 -1.071064 -0.052244
v 2.641781 0.060223 -0.075655
v 2.641781 1.417853 -0.052243
v 3.485683 -1.349543 -0.052244
v 2.882101 0.060223 -0.075655
v 3.485683 1.417853 -0.052243
v -3.228899 -0.254627 -0.330803
v -3.228899 0.060223 -0.461218
v -3.228899 0.375072 -0.330803
v -2.326929 0.060223 -1.015953
v -3.574753 -0.022219 -0.098394
v -3.574753 0.060222 -0.132542
v -3.574753 0.142663 -0.098394
v -1.220380 -0.830376 -0.723060
v -2.326929 -0.646884 -0.723060
v -1.355759 -0.831347 -0.648803
v -1.177692 -1.225002 -0.717648
v -1.359511 -0.853972 -0.575092
v -1.181444 -1.247627 -0.699244
v -2.044111 -0.717202 -0.648803
v -1.838316 -1.123391 -0.697388
v -2.047863 -0.739827 -0.575092
v -1.842068 -1.146016 -0.678984
v -2.882038 0.387352 -0.519078
v -2.853386 0.363958 -0.490426
v -2.832120 0.328117 -0.469160
v -2.820805 0.284150 -0.457845
v -2.820805 0.237362 -0.457845
v -2.832120 0.193396 -0.469160
v -2.853386 0.157554 -0.490426
v -2.882038 0.134160 -0.519078
v -2.868542 0.387352 -0.551660
v -2.828022 0.363958 -0.551660
v -2.797947 0.328117 -0.551660
v -2.781945 0.284150 -0.551660
v -2.781945 0.237362 -0.551660
v -2.797947 0.193396 -0.551660
v -2.828022 0.157554 -0.551660
v -2.868542 0.134160 -0.551660
v -2.882038 0.387352 -0.584241
v -2.853386 0.363958 -0.612893
v -2.832120 0.328117 -0.634159
v -2.820805 0.284150 -0.645474
v -2.820805 0.237362 -0.645474
v -2.832120 0.193396 -0.634159
v -2.853386 0.157554 -0.612893
v -2.882038 0.134160 -0.584241
v -2.914619 0.387352 -0.597737
v -2.914619 0.363958 -0.638257
v -2.914619 0.328117 -0.668331
v -2.914619 0.284150 -0.684334
v -2.914619 0.237362 -0.684334
v -2.914619 0.193396 -0.668332
v -2.914619 0.157554 -0.638257
v -2.914619 0.134160 -0.597737
v -2.947201 0.387352 -0.584241
v -2.975852 0.363958 -0.612893
v -2.997119 0.328117 -0.634159
v -3.008434 0.284150 -0.645474
v -3.008434 0.237362 -0.645474
v -2.997119 0.193396 -0.634159
v -2.975853 0.157554 -0.612893
v -2.947201 0.134160 -0.584241
v -2.914619 0.126035 -0.551660
v -2.914619 0.395477 -0.551660
v -2.960697 0.387352 -0.551660
v -3.001216 0.363958 -0.551660
v -3.031291 0.328117 -0.551660
v -3.047294 0.284150 -0.551660
v -3.047294 0.237362 -0.551660
v -3.031291 0.193396 -0.551660
v -3.001216 0.157554 -0.551660
v -2.960697 0.134160 -0.551660
v -2.947201 0.387352 -0.519078
v -2.975852 0.363958 -0.490426
v -2.997119 0.328117 -0.469160
v -3.008434 0.284150 -0.457845
v -3.008434 0.237362 -0.457845
v -2.997119 0.193396 -0.469160
v -2.975853 0.157554 -0.490426
v -2.947201 0.134160 -0.519078
v -2.914619 0.387352 -0.505582
v -2.914619 0.363958 -0.465063
v -2.914619 0.328117 -0.434988
v -2.914619 0.284150 -0.418985
v -2.914619 0.237362 -0.418985
v -2.914619 0.193396 -0.434988
v -2.914619 0.157554 -0.465063
v -2.914619 0.134160 -0.505582
vn 0.2448 0.8697 0.4285
vn 0.3807 -0.2856 0.8795
vn 0.0366 0.3640 0.9307
vn 0.3787 0.2803 0.8821
vn 0.2483 -0.8520 0.4609
vn 0.2854 0.6142 0.7357
vn -0.1784 0.8912 0.4170
vn 0.0985 -0.9349 0.3410
vn 0.1409 0.8967 0.4196
vn 0.0436 -0.3737 0.9265
vn -0.0000 -0.0000 -1.0000
vn -0.4940 0.3327 0.8033
vn -0.0541 -0.3720 0.9267
vn -0.0455 0.3626 0.9308
vn -0.1251 -0.9321 0.3400
vn 0.3961 -0.1147 0.9110
vn 0.4030 0.1179 0.9076
vn 0.2562 -0.6257 0.7368
vn -0.0318 0.0724 0.9969
vn -0.0276 0.0273 0.9992
vn -0.1977 -0.1628 0.9667
vn -0.5256 0.2748 0.8051
vn -0.0201 -0.0328 0.9993
vn 0.8451 0.3515 -0.4028
vn -0.0063 -0.0204 0.9998
vn -0.0000 0.0172 0.9999
vn -0.0920 -0.2457 0.9650
vn 0.6339 -0.2624 -0.7275
vn -0.6598 -0.6943 0.2876
vn -0.4940 -0.8033 0.3327
vn -0.4940 0.8033 0.3327
vn -0.4940 -0.3327 0.8033
vn -0.6598 0.2876 0.6943
vn -1.0000 -0.0000 -0.0000
vn -0.6598 0.6943 0.2876
vn -0.6598 -0.2876 0.6943
vn 0.9045 0.3490 -0.2451
vn -0.0317 -0.2881 -0.9571
vn -0.8791 -0.3955 0.2659
vn 0.0091 0.1495 0.9887
vn 0.1562 0.9420 -0.2971
vn -0.1185 -0.6147 0.7798
vn 0.3024 0.6127 -0.7302
vn 0.3024 -0.6127 -0.7302
vn 0.3627 0.3187 -0.8757
vn 0.0717 0.9823 -0.1732
vn 0.2028 -0.8480 -0.4896
vn 0.3827 -0.0000 -0.9239
vn 0.2028 0.8480 -0.4896
vn 0.0717 -0.9823 -0.1732
vn 0.3627 -0.3187 -0.8757
vn 0.8757 0.3187 -0.3627
vn 0.1732 0.9823 -0.0717
vn 0.4896 -0.8480 -0.2028
vn 0.9239 -0.0000 -0.3827
vn 0.4896 0.8480 -0.2028
vn 0.1732 -0.9823 -0.0717
vn 0.8757 -0.3187 -0.3627
vn 0.7302 0.6127 -0.3024
vn 0.7302 -0.6127 -0.3024
vn 0.4896 0.8480 0.2028
vn 0.1732 -0.9823 0.0717
vn 0.8757 -0.3187 0.3627
vn 0.7302 0.6127 0.3024
vn 0.7302 -0.6127 0.3024
vn 0.8757 0.3187 0.3627
vn 0.1732 0.9823 0.0717
vn 0.4896 -0.8480 0.2028
vn 0.9239 -0.0000 0.3827
vn 0.3024 -0.6127 0.7302
vn 0.3627 0.3187 0.8757
vn 0.0717 0.9823 0.1732
vn 0.2028 -0.8480 0.4896
vn 0.3827 -0.0000 0.9239
vn 0.2028 0.8480 0.4896
vn 0.0717 -0.9823 0.1732
vn 0.3627 -0.3187 0.8757
vn 0.3024 0.6127 0.7302
vn -0.3827 -0.0000 0.9239
vn -0.2028 0.8480 0.4896
vn -0.0717 -0.9823 0.1732
vn -0.3627 -0.3187 0.8757
vn -0.3024 0.6127 0.7302
vn -0.3024 -0.6127 0.7302
vn -0.3627 0.3187 0.8757
vn -0.0717 0.9823 0.1732
vn -0.2028 -0.8480 0.4896
vn -0.7302 0.6127 0.3024
vn -0.7302 -0.6127 0.3024
vn -0.8757 0.3187 0.3627
vn -0.1732 0.9823 0.0717
vn -0.4896 -0.8480 0.2028
vn -0.9239 -0.0000 0.3827
vn -0.4896 0.8480 0.2028
vn -0.1732 -0.9823 0.0717
vn -0.8757 -0.3187 0.3627
vn -0.1732 0.9823 -0.0717
vn -0.4896 -0.8480 -0.2028
vn -0.9239 -0.0000 -0.3827
vn -0.4896 0.8480 -0.2028
vn -0.1732 -0.9823 -0.0717
vn -0.8757 -0.3187 -0.3627
vn -0.7302 0.6127 -0.3024
vn -0.7302 -0.6127 -0.3024
vn -0.8757 0.3187 -0.3627
vn -0.0717 -0.9823 -0.1732
vn -0.3627 -0.3187 -0.8757
vn -0.3024 0.6127 -0.7302
vn -0.3024 -0.6127 -0.7302
vn -0.3627 0.3187 -0.8757
vn -0.0717 0.9823 -0.1732
vn -0.2028 -0.8480 -0.4896
vn -0.3827 -0.0000 -0.9239
vn -0.2028 0.8480 -0.4896
vn 0.2448 0.8697 -0.4285
vn 0.3807 -0.2856 -0.8795
vn 0.0366 0.3640 -0.9307
vn 0.3787 0.2803 -0.8821
vn 0.2483 -0.8520 -0.4609
vn 0.2854 0.6142 -0.7357
vn -0.1784 0.8912 -0.4170
vn 0.0985 -0.9349 -0.3410
vn 0.1409 0.8967 -0.4196
vn 0.0436 -0.3737 -0.9265
vn -0.4940 0.3327 -0.8033
vn -0.0541 -0.3720 -0.9267
vn -0.0455 0.3626 -0.9308
vn -0.1251 -0.9321 -0.3400
vn 0.3961 -0.1147 -0.9110
vn 0.4030 0.1179 -0.9076
vn 0.2562 -0.6257 -0.7368
vn -0.0318 0.0724 -0.9969
vn -0.0276 0.0273 -0.9992
vn -0.1977 -0.1628 -0.9667
vn -0.5256 0.2748 -0.8051
vn -0.0201 -0.0328 -0.9993
vn 0.8451 0.3515 0.4028
vn -0.0063 -0.0204 -0.9998
vn -0.0000 0.0172 -0.9999
vn -0.0920 -0.2457 -0.9650
vn 0.6339 -0.2624 0.7275
vn -0.6598 -0.6943 -0.2876
vn -0.4940 -0.8033 -0.3327
vn -0.4940 0.8033 -0.3327
vn -0.4940 -0.3327 -0.8033
vn -0.6598 0.2876 -0.6943
vn -0.6598 0.6943 -0.2876
vn -0.6598 -0.2876 -0.6943
vn 0.9045 0.3490 0.2451
vn -0.0317 -0.2881 0.9571
vn -0.8791 -0.3955 -0.2659
vn 0.0091 0.1495 -0.9887
vn 0.1562 0.9420 0.2971
vn -0.1185 -0.6147 -0.7798
vt 0.000000 0.000000
vt 0.375000 0.000000
vt 0.625000 0.000000
vt 0.625000 0.250000
vt 0.375000 0.250000
vt 0.625000 0.500000
vt 0.375000 0.500000
vt 0.625000 0.750000
vt 0.375000 0.750000
vt 0.625000 1.000000
vt 0.375000 1.000000
vt 0.125000 0.500000
vt 0.125000 0.750000
vt 0.875000 0.500000
vt 0.875000 0.750000
vt 0.750000 0.666667
vt 0.750000 0.777778
vt 0.625000 0.777778
vt 0.625000 0.666667
vt 0.750000 0.222222
vt 0.750000 0.333333
vt 0.625000 0.333333
vt 0.625000 0.222222
vt 0.750000 0.555556
vt 0.625000 0.555556
vt 0.750000 0.888889
vt 0.687500 1.000000
vt 0.625000 0.888889
vt 0.750000 0.111111
vt 0.625000 0.111111
vt 0.750000 0.444444
vt 0.625000 0.444444
vt 0.687500 0.000000
vt 0.500000 0.666667
vt 0.500000 0.555556
vt 0.562500 1.000000
vt 0.500000 0.888889
vt 0.500000 0.222222
vt 0.500000 0.111111
vt 0.500000 0.444444
vt 0.500000 0.777778
vt 0.562500 0.000000
vt 0.500000 0.333333
vt 0.375000 0.888889
vt 0.375000 0.777778
vt 0.437500 0.000000
vt 0.375000 0.111111
vt 0.375000 0.444444
vt 0.375000 0.333333
vt 0.375000 0.666667
vt 0.375000 0.222222
vt 0.375000 0.555556
vt 0.437500 1.000000
vt 0.250000 0.333333
vt 0.250000 0.222222
vt 0.250000 0.666667
vt 0.250000 0.555556
vt 0.312500 1.000000
vt 0.250000 0.888889
vt 0.250000 0.111111
vt 0.250000 0.444444
vt 0.250000 0.777778
vt 0.312500 0.000000
vt 0.125000 0.555556
vt 0.125000 0.444444
vt 0.125000 0.888889
vt 0.125000 0.777778
vt 0.187500 0.000000
vt 0.125000 0.111111
vt 0.125000 0.333333
vt 0.125000 0.666667
vt 0.125000 0.222222
vt 0.187500 1.000000
vt 0.000000 0.777778
vt 0.000000 0.666667
vt 0.000000 0.333333
vt 0.000000 0.222222
vt 0.000000 0.555556
vt 0.062500 1.000000
vt 0.000000 0.888889
vt 0.000000 0.111111
vt 0.000000 0.444444
vt 0.062500 0.000000
vt 1.000000 0.888889
vt 0.937500 1.000000
vt 0.875000 0.888889
vt 1.000000 0.111111
vt 1.000000 0.222222
vt 0.875000 0.222222
vt 0.875000 0.111111
vt 1.000000 0.444444
vt 1.000000 0.555556
vt 0.875000 0.555556
vt 0.875000 0.444444
vt 1.000000 0.777778
vt 0.875000 0.777778
vt 0.937500 0.000000
vt 1.000000 0.333333
vt 0.875000 0.333333
vt 1.000000 0.666667
vt 0.875000 0.666667
vt 0.812500 0.000000
vt 0.812500 1.000000
s 0
usemtl Fishl.001
f 1/1/1 6/1/1 10/1/1 5/1/1
f 4/1/2 9/1/2 8/1/2 3/1/2
f 9/1/3 10/1/3 15/1/3 14/1/3
f 5/1/4 10/1/4 9/1/4 4/1/4
f 3/1/5 8/1/5 7/1/5 2/1/5
f 1/1/6 5/1/6 24/1/6 20/1/6
f 15/1/7 11/1/7 16/1/7 19/1/7
f 7/1/8 8/1/8 13/1/8 12/1/8
f 10/1/9 6/1/9 11/1/9 15/1/9
f 8/1/10 9/1/10 14/1/10 13/1/10
f 6/1/11 7/1/11 12/1/11 11/1/11
f 41/1/12 19/1/12 40/1/12 39/1/12
f 13/1/13 14/1/13 41/1/13 18/1/13
f 11/1/11 12/1/11 17/1/11 16/1/11
f 14/1/14 15/1/14 19/1/14 41/1/14
f 12/1/15 13/1/15 18/1/15 17/1/15
f 21/1/11 20/1/11 25/1/11 26/1/11
f 4/1/16 3/1/16 22/1/16 23/1/16
f 5/1/17 4/1/17 23/1/17 24/1/17
f 3/1/18 2/1/18 21/1/18 22/1/18
f 2/1/11 1/1/11 20/1/11 21/1/11
f 25/1/19 29/1/19 34/1/19 30/1/19
f 24/1/20 23/1/20 28/1/20 29/1/20
f 22/1/21 21/1/21 26/1/21 27/1/21
f 20/1/22 24/1/22 29/1/22 25/1/22
f 23/1/23 22/1/23 27/1/23 28/1/23
f 32/1/24 31/1/24 35/1/24 33/1/24
f 28/1/25 27/1/25 32/1/25 33/1/25
f 26/1/11 25/1/11 30/1/11 35/1/11 31/1/11
f 29/1/26 28/1/26 33/1/26 34/1/26
f 27/1/27 26/1/27 31/1/27 32/1/27
f 33/1/28 35/1/28 30/1/28 34/1/28
f 37/1/29 38/1/29 45/1/29 44/1/29
f 17/1/30 18/1/30 38/1/30 37/1/30
f 19/1/31 16/1/31 36/1/31 40/1/31
f 18/1/32 41/1/32 39/1/32 38/1/32
f 16/1/11 17/1/11 37/1/11 42/1/11 36/1/11
f 39/1/33 40/1/33 47/1/33 46/1/33
f 44/1/34 45/1/34 46/1/34 48/1/34
f 48/1/34 46/1/34 47/1/34 43/1/34
f 42/1/11 37/1/11 44/1/11 48/1/11
f 40/1/35 36/1/35 43/1/35 47/1/35
f 38/1/36 39/1/36 46/1/36 45/1/36
f 36/1/11 42/1/11 48/1/11 43/1/11
f 6/1/11 11/1/11 50/1/11 53/1/11
f 18/1/34 13/1/34 51/1/34 52/1/34
f 53/1/11 50/1/11 49/1/11
f 54/2/37 55/3/37 57/4/37 56/5/37
f 56/5/38 57/4/38 61/6/38 60/7/38
f 60/7/39 61/6/39 59/8/39 58/9/39
f 58/9/40 59/8/40 55/10/40 54/11/40
f 56/12/41 60/7/41 58/9/41 54/13/41
f 61/6/42 57/14/42 55/15/42 59/8/42
f 1/1/115 130/1/115 133/1/115 6/1/115
f 129/1/116 128/1/116 131/1/116 132/1/116
f 132/1/117 135/1/117 136/1/117 133/1/117
f 130/1/118 129/1/118 132/1/118 133/1/118
f 128/1/119 2/1/119 7/1/119 131/1/119
f 1/1/120 20/1/120 141/1/120 130/1/120
f 136/1/121 138/1/121 16/1/121 11/1/121
f 7/1/122 12/1/122 134/1/122 131/1/122
f 133/1/123 136/1/123 11/1/123 6/1/123
f 131/1/124 134/1/124 135/1/124 132/1/124
f 151/1/125 149/1/125 150/1/125 138/1/125
f 134/1/126 137/1/126 151/1/126 135/1/126
f 135/1/127 151/1/127 138/1/127 136/1/127
f 12/1/128 17/1/128 137/1/128 134/1/128
f 129/1/129 140/1/129 139/1/129 128/1/129
f 130/1/130 141/1/130 140/1/130 129/1/130
f 128/1/131 139/1/131 21/1/131 2/1/131
f 25/1/132 30/1/132 147/1/132 144/1/132
f 141/1/133 144/1/133 143/1/133 140/1/133
f 139/1/134 142/1/134 26/1/134 21/1/134
f 20/1/135 25/1/135 144/1/135 141/1/135
f 140/1/136 143/1/136 142/1/136 139/1/136
f 145/1/137 146/1/137 35/1/137 31/1/137
f 143/1/138 146/1/138 145/1/138 142/1/138
f 144/1/139 147/1/139 146/1/139 143/1/139
f 142/1/140 145/1/140 31/1/140 26/1/140
f 146/1/141 147/1/141 30/1/141 35/1/141
f 37/1/142 44/1/142 152/1/142 148/1/142
f 17/1/143 37/1/143 148/1/143 137/1/143
f 138/1/144 150/1/144 36/1/144 16/1/144
f 137/1/145 148/1/145 149/1/145 151/1/145
f 149/1/146 153/1/146 154/1/146 150/1/146
f 44/1/34 48/1/34 153/1/34 152/1/34
f 48/1/34 43/1/34 154/1/34 153/1/34
f 150/1/147 154/1/147 43/1/147 36/1/147
f 148/1/148 152/1/148 153/1/148 149/1/148
f 137/1/34 156/1/34 155/1/34 134/1/34
f 157/2/149 159/5/149 160/4/149 158/3/149
f 159/5/150 163/7/150 164/6/150 160/4/150
f 163/7/151 161/9/151 162/8/151 164/6/151
f 161/9/152 157/11/152 158/10/152 162/8/152
f 159/12/153 157/13/153 161/9/153 163/7/153
f 164/6/154 162/8/154 158/15/154 160/14/154
usemtl FishEye.001
f 122/16/43 121/17/43 63/18/43 64/19/43
f 126/20/44 125/21/44 67/22/44 68/23/44
f 123/24/45 122/16/45 64/19/45 65/25/45
f 120/26/46 103/27/46 62/28/46
f 127/29/47 126/20/47 68/23/47 69/30/47
f 124/31/48 123/24/48 65/25/48 66/32/48
f 121/17/49 120/26/49 62/28/49 63/18/49
f 102/33/50 127/29/50 69/30/50
f 125/21/51 124/31/51 66/32/51 67/22/51
f 65/25/52 64/19/52 72/34/52 73/35/52
f 62/28/53 103/36/53 70/37/53
f 69/30/54 68/23/54 76/38/54 77/39/54
f 66/32/55 65/25/55 73/35/55 74/40/55
f 63/18/56 62/28/56 70/37/56 71/41/56
f 102/42/57 69/30/57 77/39/57
f 67/22/58 66/32/58 74/40/58 75/43/58
f 64/19/59 63/18/59 71/41/59 72/34/59
f 68/23/60 67/22/60 75/43/60 76/38/60
f 71/41/61 70/37/61 78/44/61 79/45/61
f 102/46/62 77/39/62 85/47/62
f 75/43/63 74/40/63 82/48/63 83/49/63
f 72/34/64 71/41/64 79/45/64 80/50/64
f 76/38/65 75/43/65 83/49/65 84/51/65
f 73/35/66 72/34/66 80/50/66 81/52/66
f 70/37/67 103/53/67 78/44/67
f 77/39/68 76/38/68 84/51/68 85/47/68
f 74/40/69 73/35/69 81/52/69 82/48/69
f 84/51/70 83/49/70 91/54/70 92/55/70
f 81/52/71 80/50/71 88/56/71 89/57/71
f 78/44/72 103/58/72 86/59/72
f 85/47/73 84/51/73 92/55/73 93/60/73
f 82/48/74 81/52/74 89/57/74 90/61/74
f 79/45/75 78/44/75 86/59/75 87/62/75
f 102/63/76 85/47/76 93/60/76
f 83/49/77 82/48/77 90/61/77 91/54/77
f 80/50/78 79/45/78 87/62/78 88/56/78
f 90/61/79 89/57/79 97/64/79 98/65/79
f 87/62/80 86/59/80 94/66/80 95/67/80
f 102/68/81 93/60/81 101/69/81
f 91/54/82 90/61/82 98/65/82 99/70/82
f 88/56/83 87/62/83 95/67/83 96/71/83
f 92/55/84 91/54/84 99/70/84 100/72/84
f 89/57/85 88/56/85 96/71/85 97/64/85
f 86/59/86 103/73/86 94/66/86
f 93/60/87 92/55/87 100/72/87 101/69/87
f 96/71/88 95/67/88 105/74/88 106/75/88
f 100/72/89 99/70/89 109/76/89 110/77/89
f 97/64/90 96/71/90 106/75/90 107/78/90
f 94/66/91 103/79/91 104/80/91
f 101/69/92 100/72/92 110/77/92 111/81/92
f 98/65/93 97/64/93 107/78/93 108/82/93
f 95/67/94 94/66/94 104/80/94 105/74/94
f 102/83/95 101/69/95 111/81/95
f 99/70/96 98/65/96 108/82/96 109/76/96
f 104/84/97 103/85/97 112/86/97
f 111/87/98 110/88/98 118/89/98 119/90/98
f 108/91/99 107/92/99 115/93/99 116/94/99
f 105/95/100 104/84/100 112/86/100 113/96/100
f 102/97/101 111/87/101 119/90/101
f 109/98/102 108/91/102 116/94/102 117/99/102
f 106/100/103 105/95/103 113/96/103 114/101/103
f 110/88/104 109/98/104 117/99/104 118/89/104
f 107/92/105 106/100/105 114/101/105 115/93/105
f 102/102/106 119/90/106 127/29/106
f 117/99/107 116/94/107 124/31/107 125/21/107
f 114/101/108 113/96/108 121/17/108 122/16/108
f 118/89/109 117/99/109 125/21/109 126/20/109
f 115/93/110 114/101/110 122/16/110 123/24/110
f 112/86/111 103/103/111 120/26/111
f 119/90/112 118/89/112 126/20/112 127/29/112
f 116/94/113 115/93/113 123/24/113 124/31/113
f 113/96/114 112/86/114 120/26/114 121/17/114
f 225/16/78 167/19/78 166/18/78 224/17/78
f 229/20/70 171/23/70 170/22/70 228/21/70
f 226/24/71 168/25/71 167/19/71 225/16/71
f 223/26/72 165/28/72 206/27/72
f 230/29/73 172/30/73 171/23/73 229/20/73
f 227/31/74 169/32/74 168/25/74 226/24/74
f 224/17/75 166/18/75 165/28/75 223/26/75
f 205/33/76 172/30/76 230/29/76
f 228/21/77 170/22/77 169/32/77 227/31/77
f 168/25/66 176/35/66 175/34/66 167/19/66
f 165/28/67 173/37/67 206/36/67
f 172/30/68 180/39/68 179/38/68 171/23/68
f 169/32/69 177/40/69 176/35/69 168/25/69
f 166/18/61 174/41/61 173/37/61 165/28/61
f 205/42/62 180/39/62 172/30/62
f 170/22/63 178/43/63 177/40/63 169/32/63
f 167/19/64 175/34/64 174/41/64 166/18/64
f 171/23/65 179/38/65 178/43/65 170/22/65
f 174/41/56 182/45/56 181/44/56 173/37/56
f 205/46/57 188/47/57 180/39/57
f 178/43/58 186/49/58 185/48/58 177/40/58
f 175/34/59 183/50/59 182/45/59 174/41/59
f 179/38/60 187/51/60 186/49/60 178/43/60
f 176/35/52 184/52/52 183/50/52 175/34/52
f 173/37/53 181/44/53 206/53/53
f 180/39/54 188/47/54 187/51/54 179/38/54
f 177/40/55 185/48/55 184/52/55 176/35/55
f 187/51/44 195/55/44 194/54/44 186/49/44
f 184/52/45 192/57/45 191/56/45 183/50/45
f 181/44/46 189/59/46 206/58/46
f 188/47/47 196/60/47 195/55/47 187/51/47
f 185/48/48 193/61/48 192/57/48 184/52/48
f 182/45/49 190/62/49 189/59/49 181/44/49
f 205/63/50 196/60/50 188/47/50
f 186/49/51 194/54/51 193/61/51 185/48/51
f 183/50/43 191/56/43 190/62/43 182/45/43
f 193/61/113 201/65/113 200/64/113 192/57/113
f 190/62/114 198/67/114 197/66/114 189/59/114
f 205/68/106 204/69/106 196/60/106
f 194/54/107 202/70/107 201/65/107 193/61/107
f 191/56/108 199/71/108 198/67/108 190/62/108
f 195/55/109 203/72/109 202/70/109 194/54/109
f 192/57/110 200/64/110 199/71/110 191/56/110
f 189/59/111 197/66/111 206/73/111
f 196/60/112 204/69/112 203/72/112 195/55/112
f 199/71/103 209/75/103 208/74/103 198/67/103
f 203/72/104 213/77/104 212/76/104 202/70/104
f 200/64/105 210/78/105 209/75/105 199/71/105
f 197/66/97 207/80/97 206/79/97
f 204/69/98 214/81/98 213/77/98 203/72/98
f 201/65/99 211/82/99 210/78/99 200/64/99
f 198/67/100 208/74/100 207/80/100 197/66/100
f 205/83/101 214/81/101 204/69/101
f 202/70/102 212/76/102 211/82/102 201/65/102
f 207/84/91 215/86/91 206/85/91
f 214/87/92 222/90/92 221/89/92 213/88/92
f 211/91/93 219/94/93 218/93/93 210/92/93
f 208/95/94 216/96/94 215/86/94 207/84/94
f 205/97/95 222/90/95 214/87/95
f 212/98/96 220/99/96 219/94/96 211/91/96
f 209/100/88 217/101/88 216/96/88 208/95/88
f 213/88/89 221/89/89 220/99/89 212/98/89
f 210/92/90 218/93/90 217/101/90 209/100/90
f 205/102/81 230/29/81 222/90/81
f 220/99/82 228/21/82 227/31/82 219/94/82
f 217/101/83 225/16/83 224/17/83 216/96/83
f 221/89/84 229/20/84 228/21/84 220/99/84
f 218/93/85 226/24/85 225/16/85 217/101/85
f 215/86/86 223/26/86 206/103/86
f 222/90/87 230/29/87 229/20/87 221/89/87
f 219/94/79 227/31/79 226/24/79 218/93/79
f 216/96/80 224/17/80 223/26/80 215/86/80
